<svg width="3121" height="3144" viewBox="0 0 3121 3144" fill="none" xmlns="http://www.w3.org/2000/svg">
<path fill-rule="evenodd" clip-rule="evenodd" d="M1771 885.5C1771 1374.55 1374.55 1771 885.5 1771C396.452 1771 0 1374.55 0 885.5C0 396.452 396.452 0 885.5 0C1374.55 0 1771 396.452 1771 885.5ZM1286 886C1286 1106.91 1106.91 1286 886 1286C665.086 1286 486 1106.91 486 886C486 665.086 665.086 486 886 486C1106.91 486 1286 665.086 1286 886ZM3121 2258.5C3121 2747.55 2724.55 3144 2235.5 3144C1746.45 3144 1350 2747.55 1350 2258.5C1350 1769.45 1746.45 1373 2235.5 1373C2724.55 1373 3121 1769.45 3121 2258.5ZM2636 2259C2636 2479.91 2456.91 2659 2236 2659C2015.09 2659 1836 2479.91 1836 2259C1836 2038.09 2015.09 1859 2236 1859C2456.91 1859 2636 2038.09 2636 2259Z" fill="#fef4ea"/>
</svg>
